# WaveFront *.obj file (generated by Autodesk ATF)

mtllib T1_L.mtl

g Solid1

v 0.240013 -0.150000 1.752041
v 0.238582 -0.150000 1.701800
v 0.238582 -0.160000 1.701800
v 0.240013 -0.160000 1.752041
v 2.432062 -0.150000 1.464442
v 2.432062 -0.160000 1.464442
v 2.430215 -0.150000 1.414256
v 2.430688 -0.150000 1.426811
v 2.431154 -0.150000 1.439360
v 2.431612 -0.150000 1.451904
v 2.431612 -0.160000 1.451904
v 2.431154 -0.160000 1.439360
v 2.430688 -0.160000 1.426811
v 2.430215 -0.160000 1.414256
vt -265.238863 0.000000 0.000000
vt -260.215007 0.000000 0.000000
vt -265.238863 1.000000 0.000000
vt -260.215007 1.000000 0.000000
vt 0.000000 0.000000 0.000000
vt 221.083528 0.000000 0.000000
vt 0.000000 1.000000 0.000000
vt 221.083528 1.000000 0.000000
vt -6165.106987 0.000000 0.000000
vt -6163.851623 0.000000 0.000000
vt -6165.106987 1.000000 0.000000
vt -6163.851623 1.000000 0.000000
vt -6162.596260 0.000000 0.000000
vt -6162.596260 1.000000 0.000000
vt -6161.340896 0.000000 0.000000
vt -6161.340896 1.000000 0.000000
vt -6160.085533 0.000000 0.000000
vt -6160.085533 1.000000 0.000000
vt 0.000000 0.000000 0.000000
vt 221.041546 0.000000 0.000000
vt 0.000000 1.000000 0.000000
vt 221.041546 1.000000 0.000000
vt -16.889231 109.489279 0.000000
vt 11.865157 -109.674017 0.000000
vt -15.633790 109.536604 0.000000
vt -14.378874 109.583156 0.000000
vt -13.124482 109.628955 0.000000
vt -11.870618 109.674017 0.000000
vt 16.889231 -109.530904 0.000000
vt 16.889231 109.489279 0.000000
vt 15.633790 109.536604 0.000000
vt -11.865157 -109.674017 0.000000
vt 14.378874 109.583156 0.000000
vt 13.124482 109.628955 0.000000
vt 11.870618 109.674017 0.000000
vt -16.889231 -109.530904 0.000000
vn -99.961482 0.000000 2.775283
vn -99.957256 0.000000 2.923525
vn -99.961482 0.000000 2.775283
vn -99.957256 0.000000 2.923525
vn 13.008590 0.000000 99.150273
vn 13.008590 0.000000 99.150273
vn 13.008590 0.000000 99.150273
vn 13.008590 0.000000 99.150273
vn 99.927873 0.000000 -3.797392
vn 99.930159 0.000000 -3.736746
vn 99.927873 0.000000 -3.797392
vn 99.930159 0.000000 -3.736746
vn 99.932355 0.000000 -3.677569
vn 99.932355 0.000000 -3.677569
vn 99.934462 0.000000 -3.619846
vn 99.934462 0.000000 -3.619846
vn 99.936486 0.000000 -3.563536
vn 99.936486 0.000000 -3.563536
vn -13.008590 0.000000 -99.150273
vn -13.008590 0.000000 -99.150273
vn -13.008590 0.000000 -99.150273
vn -13.008590 0.000000 -99.150273
vn 0.000000 100.000000 0.000000
vn 0.000000 100.000000 0.000000
vn 0.000000 100.000000 0.000000
vn 0.000000 100.000000 0.000000
vn 0.000000 100.000000 0.000000
vn 0.000000 100.000000 0.000000
vn 0.000000 100.000000 0.000000
vn 0.000000 -100.000000 0.000000
vn 0.000000 -100.000000 0.000000
vn 0.000000 -100.000000 0.000000
vn 0.000000 -100.000000 0.000000
vn 0.000000 -100.000000 0.000000
vn 0.000000 -100.000000 0.000000
vn 0.000000 -100.000000 0.000000
usemtl 245,245,245
f 1/1/1 2/2/2 4/3/3
f 4/3/3 2/2/2 3/4/4
f 5/5/5 1/6/6 6/7/7
f 6/7/7 1/6/6 4/8/8
f 7/9/9 8/10/10 14/11/11
f 14/11/11 8/10/10 13/12/12
f 13/12/12 8/10/10 9/13/13
f 13/12/12 9/13/13 12/14/14
f 12/14/14 9/13/13 10/15/15
f 12/14/14 10/15/15 11/16/16
f 11/16/16 10/15/15 5/17/17
f 11/16/16 5/17/17 6/18/18
f 2/19/19 7/20/20 3/21/21
f 3/21/21 7/20/20 14/22/22
f 7/23/23 2/24/24 8/25/25
f 8/25/25 2/24/24 9/26/26
f 9/26/26 2/24/24 10/27/27
f 10/27/27 2/24/24 5/28/28
f 5/28/28 2/24/24 1/29/29
f 14/30/30 13/31/31 3/32/32
f 3/32/32 13/31/31 12/33/33
f 3/32/32 12/33/33 11/34/34
f 11/34/34 6/35/35 3/32/32
f 3/32/32 6/35/35 4/36/36

# 14 vertices
# 36 texture params
# 36 normals
# 24 facets

# 1 groups
