# WaveFront *.obj file (generated by Autodesk ATF)

mtllib T2_L.mtl

g Solid1

v -2.475000 -0.150000 -0.850000
v -2.525000 -0.150000 -0.850000
v -2.525000 -0.160000 -0.850000
v -2.475000 -0.160000 -0.850000
v -2.475000 -0.150000 -2.150000
v -2.475000 -0.160000 -2.150000
v -2.525000 -0.150000 -2.150000
v -2.525000 -0.160000 -2.150000
v -2.475000 -0.150000 2.150000
v -2.525000 -0.150000 2.150000
v -2.525000 -0.160000 2.150000
v -2.475000 -0.160000 2.150000
v -2.475000 -0.150000 0.850000
v -2.475000 -0.160000 0.850000
v -2.525000 -0.150000 0.850000
v -2.525000 -0.160000 0.850000
vt 0.000000 0.000000 0.000000
vt 5.000000 0.000000 0.000000
vt 0.000000 1.000000 0.000000
vt 5.000000 1.000000 0.000000
vt 0.000000 0.000000 0.000000
vt 130.000000 0.000000 0.000000
vt 0.000000 1.000000 0.000000
vt 130.000000 1.000000 0.000000
vt 0.000000 0.000000 0.000000
vt 5.000000 0.000000 0.000000
vt 0.000000 1.000000 0.000000
vt 5.000000 1.000000 0.000000
vt 0.000000 0.000000 0.000000
vt 130.000000 0.000000 0.000000
vt 0.000000 1.000000 0.000000
vt 130.000000 1.000000 0.000000
vt -65.000000 -2.500000 0.000000
vt 65.000000 -2.500000 0.000000
vt -65.000000 2.500000 0.000000
vt 65.000000 2.500000 0.000000
vt -65.000000 -2.500000 0.000000
vt 65.000000 -2.500000 0.000000
vt -65.000000 2.500000 0.000000
vt 65.000000 2.500000 0.000000
vt -0.000000 0.000000 0.000000
vt 5.000000 0.000000 0.000000
vt 0.000000 1.000000 0.000000
vt 5.000000 1.000000 0.000000
vt -0.000000 0.000000 0.000000
vt 130.000000 0.000000 0.000000
vt -0.000000 1.000000 0.000000
vt 130.000000 1.000000 0.000000
vt -0.000000 0.000000 0.000000
vt 5.000000 0.000000 0.000000
vt -0.000000 1.000000 0.000000
vt 5.000000 1.000000 0.000000
vt 0.000000 0.000000 0.000000
vt 130.000000 0.000000 0.000000
vt 0.000000 1.000000 0.000000
vt 130.000000 1.000000 0.000000
vt -65.000000 -2.500000 0.000000
vt 65.000000 -2.500000 0.000000
vt -65.000000 2.500000 0.000000
vt 65.000000 2.500000 0.000000
vt -65.000000 -2.500000 0.000000
vt 65.000000 -2.500000 0.000000
vt -65.000000 2.500000 0.000000
vt 65.000000 2.500000 0.000000
vn -0.000000 0.000000 100.000000
vn -0.000000 0.000000 100.000000
vn -0.000000 0.000000 100.000000
vn -0.000000 0.000000 100.000000
vn 100.000000 0.000000 0.000000
vn 100.000000 0.000000 0.000000
vn 100.000000 0.000000 0.000000
vn 100.000000 0.000000 0.000000
vn 0.000000 0.000000 -100.000000
vn 0.000000 0.000000 -100.000000
vn 0.000000 0.000000 -100.000000
vn 0.000000 0.000000 -100.000000
vn -100.000000 0.000000 0.000000
vn -100.000000 0.000000 0.000000
vn -100.000000 0.000000 0.000000
vn -100.000000 0.000000 0.000000
vn 0.000000 100.000000 0.000000
vn 0.000000 100.000000 0.000000
vn 0.000000 100.000000 0.000000
vn 0.000000 100.000000 0.000000
vn 0.000000 -100.000000 0.000000
vn 0.000000 -100.000000 0.000000
vn 0.000000 -100.000000 0.000000
vn 0.000000 -100.000000 0.000000
vn -0.000000 0.000000 100.000000
vn -0.000000 0.000000 100.000000
vn -0.000000 0.000000 100.000000
vn -0.000000 0.000000 100.000000
vn 100.000000 0.000000 0.000000
vn 100.000000 0.000000 0.000000
vn 100.000000 0.000000 0.000000
vn 100.000000 0.000000 0.000000
vn 0.000000 0.000000 -100.000000
vn 0.000000 0.000000 -100.000000
vn 0.000000 0.000000 -100.000000
vn 0.000000 0.000000 -100.000000
vn -100.000000 0.000000 0.000000
vn -100.000000 0.000000 0.000000
vn -100.000000 0.000000 0.000000
vn -100.000000 0.000000 0.000000
vn 0.000000 100.000000 0.000000
vn 0.000000 100.000000 0.000000
vn 0.000000 100.000000 0.000000
vn 0.000000 100.000000 0.000000
vn 0.000000 -100.000000 0.000000
vn 0.000000 -100.000000 0.000000
vn 0.000000 -100.000000 0.000000
vn 0.000000 -100.000000 0.000000
usemtl 245,245,245
f 1/1/1 2/2/2 4/3/3
f 4/3/3 2/2/2 3/4/4
f 5/5/5 1/6/6 6/7/7
f 6/7/7 1/6/6 4/8/8
f 7/9/9 5/10/10 8/11/11
f 8/11/11 5/10/10 6/12/12
f 2/13/13 7/14/14 3/15/15
f 3/15/15 7/14/14 8/16/16
f 7/17/17 2/18/18 5/19/19
f 5/19/19 2/18/18 1/20/20
f 3/21/21 8/22/22 4/23/23
f 4/23/23 8/22/22 6/24/24
f 9/25/25 10/26/26 12/27/27
f 12/27/27 10/26/26 11/28/28
f 13/29/29 9/30/30 14/31/31
f 14/31/31 9/30/30 12/32/32
f 15/33/33 13/34/34 16/35/35
f 16/35/35 13/34/34 14/36/36
f 10/37/37 15/38/38 11/39/39
f 11/39/39 15/38/38 16/40/40
f 15/41/41 10/42/42 13/43/43
f 13/43/43 10/42/42 9/44/44
f 11/45/45 16/46/46 12/47/47
f 12/47/47 16/46/46 14/48/48

# 16 vertices
# 48 texture params
# 48 normals
# 24 facets

# 1 groups
